<?xml version="1.0" encoding="utf-8"?>
<svg version="1.1" id="Layer_1" x="0px" y="0px" viewBox="0 0 950 950" style="stroke-width: 1px;enable-background:new 0 0 322.983 322.983;" xmlns="http://www.w3.org/2000/svg">
  <g transform="matrix(1, 0, 0, 1, 313.508514, 313.508484)">
    <g>
      <g>
        <path d="M296.504,40.051v-7.449c0-4.971-4.029-9-9-9s-9,4.029-9,9v2.587c-1.051-0.07-2.107-0.118-3.175-0.118H260.5v-2.469 c0-4.971-4.029-9-9-9s-9,4.029-9,9v2.469h-18.003v-2.469c0-4.971-4.029-9-9-9s-9,4.029-9,9v2.469h-18.004v-2.469 c0-4.971-4.029-9-9-9c-4.971,0-9,4.029-9,9v2.469h-18.004v-2.469c0-4.971-4.029-9-9-9s-9,4.029-9,9v2.469h-18.004v-2.469 c0-4.971-4.029-9-9-9s-9,4.029-9,9v2.469H80.482v-2.469c0-4.971-4.029-9-9-9s-9,4.029-9,9v2.469H47.653 c-1.068,0-2.124,0.048-3.175,0.118v-2.587c0-4.971-4.029-9-9-9c-4.971,0-9,4.029-9,9v7.449C10.801,47.862,0,64.051,0,82.724 V266.41c0,18.18,14.791,32.971,32.972,32.971h257.039c18.181,0,32.972-14.791,32.972-32.971V82.724 C322.982,64.051,312.182,47.862,296.504,40.051z M28.495,60.117c1.65,2.029,4.164,3.327,6.984,3.327c4.971,0,9-4.029,9-9v-1.201 c1.043-0.112,2.102-0.172,3.175-0.172h14.829v1.373c0,4.971,4.029,9,9,9c4.971,0,9-4.029,9-9v-1.373h18.003v1.373 c0,4.971,4.029,9,9,9s9-4.029,9-9v-1.373h18.004v1.373c0,4.971,4.029,9,9,9c4.971,0,9-4.029,9-9v-1.373h18.004v1.373 c0,4.971,4.029,9,9,9s9-4.029,9-9v-1.373h18.004v1.373c0,4.971,4.029,9,9,9c4.971,0,9-4.029,9-9v-1.373H242.5v1.373 c0,4.971,4.029,9,9,9s9-4.029,9-9v-1.373h14.829c1.073,0,2.131,0.061,3.175,0.172v1.201c0,4.971,4.029,9,9,9 c2.819,0,5.333-1.298,6.984-3.327c6.228,5.286,10.248,13.091,10.475,21.828H18.02C18.247,73.208,22.267,65.403,28.495,60.117z M304.982,266.41c0,8.255-6.715,14.971-14.971,14.971H32.972c-8.256,0-14.972-6.716-14.972-14.971V99.944h286.982V266.41z" style="stroke: #1f7f90; stroke-width: 0px; fill: #1f7f90;"/>
        <path d="M74.601,165.596c1.738,1.733,4.039,2.629,6.36,2.629c1.689,0,3.39-0.475,4.889-1.446l36.004-23.315 c4.173-2.702,5.364-8.274,2.663-12.446c-2.703-4.171-8.277-5.364-12.447-2.662l-29.901,19.363l-10.814-10.791 c-3.52-3.511-9.219-3.504-12.729,0.014c-3.511,3.519-3.505,9.217,0.014,12.728L74.601,165.596z" style="stroke: #1f7f90; stroke-width: 0px; fill: #1f7f90;"/>
        <path d="M145.115,251.434c1.737,1.734,4.038,2.629,6.359,2.629c1.689,0,3.39-0.475,4.89-1.446l36.003-23.315 c4.172-2.702,5.363-8.274,2.662-12.446c-2.704-4.172-8.275-5.365-12.448-2.662l-29.9,19.363l-10.814-10.792 c-3.521-3.511-9.219-3.504-12.729,0.014c-3.511,3.519-3.505,9.217,0.015,12.728L145.115,251.434z" style="stroke: #1f7f90; stroke-width: 0px; fill: #1f7f90;"/>
        <path d="M63.989,242.406h35.03c4.971,0,9-4.029,9-9s-4.03-9-9-9h-35.03c-4.971,0-9,4.029-9,9S59.018,242.406,63.989,242.406z" style="stroke: #1f7f90; stroke-width: 0px; fill: #1f7f90;"/>
        <path d="M223.964,242.406h35.03c4.971,0,9-4.029,9-9s-4.029-9-9-9h-35.03c-4.971,0-9,4.029-9,9S218.993,242.406,223.964,242.406z " style="stroke: #1f7f90; stroke-width: 0px; fill: #1f7f90;"/>
        <path d="M223.964,163.226h35.03c4.971,0,9-4.029,9-9c0-4.971-4.029-9-9-9h-35.03c-4.971,0-9,4.029-9,9 C214.964,159.197,218.993,163.226,223.964,163.226z" style="stroke: #1f7f90; stroke-width: 0px; fill: #1f7f90;"/>
        <path d="M63.989,203.408h35.03c4.971,0,9-4.029,9-9c0-4.971-4.03-9-9-9h-35.03c-4.971,0-9,4.029-9,9 C54.989,199.379,59.018,203.408,63.989,203.408z" style="stroke: #1f7f90; stroke-width: 0px; fill: #1f7f90;"/>
        <path d="M223.964,203.408h35.03c4.971,0,9-4.029,9-9c0-4.971-4.029-9-9-9h-35.03c-4.971,0-9,4.029-9,9 C214.964,199.379,218.993,203.408,223.964,203.408z" style="stroke: #1f7f90; stroke-width: 0px; fill: #1f7f90;"/>
        <path d="M143.976,203.408h35.031c4.971,0,9-4.029,9-9c0-4.971-4.029-9-9-9h-35.031c-4.971,0-9,4.029-9,9 C134.976,199.379,139.005,203.408,143.976,203.408z" style="stroke: #1f7f90; stroke-width: 0px; fill: #1f7f90;"/>
        <path d="M143.976,163.226h35.031c4.971,0,9-4.029,9-9c0-4.971-4.029-9-9-9h-35.031c-4.971,0-9,4.029-9,9 C134.976,159.197,139.005,163.226,143.976,163.226z" style="stroke: #1f7f90; stroke-width: 0px; fill: #1f7f90;"/>
      </g>
    </g>
  </g>
  <g/>
  <g/>
  <g/>
  <g/>
  <g/>
  <g/>
  <g/>
  <g/>
  <g/>
  <g/>
  <g/>
  <g/>
  <g/>
  <g/>
  <g/>
</svg>