<?xml version="1.0" encoding="utf-8"?>
<svg viewBox="0 0 660 660" xmlns="http://www.w3.org/2000/svg">
  <g transform="matrix(0.1, 0, 0, -0.1, 218.646988, 442.74823)" fill="#000000" stroke="none">
    <path d="M920 2225 c-228 -42 -448 -161 -610 -331 -241 -254 -347 -592 -295 -937 66 -440 389 -798 823 -914 86 -23 117 -26 272 -27 191 -1 248 8 401 64 330 120 588 404 686 756 26 92 28 112 28 289 0 177 -2 197 -27 288 -140 498 -578 830 -1092 826 -61 0 -145 -7 -186 -14z m340 -324 c0 -6 -24 -31 -54 -57 -50 -43 -55 -51 -65 -109 -6 -34 -11 -79 -11 -100 0 -29 -3 -36 -11 -28 -13 13 -17 116 -6 156 6 24 5 27 -16 27 -13 0 -28 -5 -34 -11 -16 -16 -60 -3 -73 21 -8 16 -4 23 26 46 20 16 48 29 63 30 14 1 53 9 86 17 72 18 95 20 95 8z m44 -32 c-1 -13 -4 -50 -8 -81 -5 -56 6 -80 17 -37 4 16 12 20 39 17 l33 -3 3 -76 c2 -59 -1 -79 -13 -89 -13 -11 -20 -9 -40 10 -14 13 -25 18 -25 12 0 -6 -9 -16 -20 -22 -15 -8 -24 -6 -40 10 -36 36 -26 204 15 267 20 29 40 25 39 -8z m360 -80 c6 -6 6 -19 0 -36 -6 -21 -26 -36 -71 -58 -35 -16 -63 -33 -63 -36 0 -15 98 -18 150 -4 74 20 80 19 47 -10 -31 -28 -114 -55 -167 -55 -22 0 -51 9 -71 23 -27 18 -35 30 -37 61 -3 33 2 43 37 76 54 52 140 71 175 39z m-850 -253 c56 -33 70 -57 69 -120 -1 -74 -56 -148 -151 -202 -76 -43 -179 -74 -243 -74 l-37 0 -17 -92 c-9 -51 -21 -133 -25 -183 -16 -166 -23 -214 -31 -210 -4 3 -10 1 -14 -4 -6 -11 -53 30 -48 42 2 4 -4 7 -13 7 -16 0 -16 11 -11 118 4 64 14 160 22 212 9 52 18 125 21 162 5 60 4 69 -13 74 -57 18 -65 27 -59 63 6 41 27 63 116 126 120 84 214 117 322 111 50 -2 78 -10 112 -30z m770 -27 c69 -9 92 -18 69 -26 -6 -2 -20 -12 -32 -22 -14 -12 -40 -18 -84 -20 -81 -2 -159 -10 -165 -15 -2 -2 -8 -37 -13 -78 -5 -40 -20 -131 -33 -203 -21 -114 -31 -172 -42 -250 -1 -11 -5 -69 -9 -130 -14 -239 -31 -326 -51 -263 -4 13 -17 39 -30 58 -22 31 -24 45 -23 145 1 129 11 247 32 365 28 157 49 306 45 330 -3 23 -6 24 -99 24 -81 1 -100 4 -118 20 -32 29 -27 54 12 61 79 13 455 16 541 4z m-1 -211 c26 -13 21 -51 -23 -177 -23 -63 -40 -121 -38 -129 2 -10 25 -20 63 -28 33 -6 61 -11 63 -9 2 1 14 47 28 101 14 55 32 113 40 131 8 17 14 35 14 41 0 5 7 15 15 22 12 10 22 9 50 -4 44 -21 44 -34 2 -167 -54 -165 -54 -153 1 -168 81 -23 166 -64 195 -95 41 -43 22 -54 -50 -29 -66 24 -145 48 -185 57 -25 6 -28 3 -38 -36 -23 -87 -46 -149 -54 -148 -5 1 -12 -4 -16 -10 -4 -7 -15 4 -27 29 -19 38 -20 47 -9 110 14 79 19 74 -80 86 l-50 7 -17 -63 c-9 -35 -21 -87 -27 -116 -19 -85 -67 -82 -63 4 3 69 13 154 19 164 9 15 -6 49 -21 49 -18 0 -37 34 -29 54 3 8 20 16 37 18 30 3 32 6 53 88 12 47 29 102 38 122 9 21 16 50 16 66 0 49 34 60 93 30z m-568 -6 c24 -16 37 -94 30 -178 l-7 -84 41 0 c36 0 43 -4 52 -27 11 -30 -3 -44 -56 -53 l-30 -5 3 -133 c3 -135 -8 -200 -32 -181 -71 55 -69 51 -79 182 -5 67 -11 123 -12 125 -2 2 -18 -1 -36 -5 -28 -8 -38 -20 -80 -103 -27 -52 -49 -103 -49 -113 0 -38 -82 -44 -113 -9 -13 15 -11 26 24 101 l39 83 -37 -7 c-21 -4 -57 -13 -81 -22 -49 -16 -86 -8 -118 28 -15 17 -16 21 -3 34 15 15 149 56 246 75 l62 12 44 77 c24 42 61 106 82 144 33 61 40 67 68 67 18 0 37 -4 42 -8z" style="fill: #1f7f90;"/>
    <path d="M1544 1754 c-23 -19 -25 -23 -11 -24 17 0 77 26 77 34 0 2 -8 6 -19 9 -11 2 -31 -5 -47 -19z" style="fill: #1f7f90;"/>
    <path d="M622 1475 c-53 -17 -142 -68 -167 -95 -10 -11 -24 -20 -31 -20 -13 0 -64 -56 -64 -71 0 -5 18 -9 40 -9 34 0 42 -4 56 -31 14 -28 18 -30 52 -24 72 13 171 66 216 117 46 50 59 88 45 125 -7 20 -15 23 -56 22 -27 -1 -67 -7 -91 -14z" style="fill: #1f7f90;"/>
    <path d="M910 1039 c-10 -18 -9 -20 7 -17 10 2 19 11 21 21 5 24 -15 21 -28 -4z" style="fill: #1f7f90;"/>
  </g>
</svg>