<?xml version="1.0" encoding="utf-8"?>
<svg version="1.1" id="Capa_1" fill="#1f7f90" x="0px" y="0px" viewBox="0 0 1100 1100" style="enable-background:new 0 0 511 511;" xmlns="http://www.w3.org/2000/svg">
  <path d="M 605.5 761.278 C 605.5 746.278 605.5 738.778 605.5 738.778 C 605.5 734.091 601.687 730.278 597 730.278 L 557.5 730.278 C 557.5 689.278 710 689.278 710 689.278 L 726 689.278 C 730.142 689.278 733.5 685.921 733.5 681.778 C 733.5 677.635 730.142 674.278 726 674.278 L 717.5 674.278 L 717.5 497.278 L 734 497.278 C 737.096 497.278 739.873 495.376 740.993 492.49 C 742.112 489.604 741.344 486.327 739.057 484.239 L 685.5 435.339 L 685.5 369.778 C 685.5 361.231 678.547 354.278 670 354.278 L 638 354.278 C 629.453 354.278 622.5 361.231 622.5 369.778 L 622.5 377.817 L 571.239 331.014 C 559.131 319.959 540.868 319.959 528.76 331.014 L 360.943 484.239 C 358.657 486.327 357.888 489.604 359.007 492.49 C 360.127 495.376 362.904 497.278 366 497.278 L 382.5 497.278 L 382.5 674.278 L 374 674.278 C 369.858 674.278 366.5 677.635 366.5 681.778 C 366.5 685.921 369.858 689.278 374 689.278 L 390 689.278 C 542.5 689.278 542.5 730.278 542.5 730.278 L 503 730.278 C 498.313 730.278 494.5 734.091 494.5 738.778 C 494.5 761.278 494.5 768.778 494.5 768.778 C 494.5 773.465 498.313 777.278 503 777.278 L 597 777.278 C 601.687 777.278 605.5 773.465 605.5 768.778 L 605.5 761.278 Z M 590.5 674.278 L 509.5 674.278 L 509.5 537.778 C 509.5 537.503 509.724 537.278 510 537.278 L 590 537.278 C 590.276 537.278 590.5 537.503 590.5 537.778 L 590.5 674.278 Z M 390 482.278 L 385.337 482.278 L 538.875 342.093 C 545.217 336.301 554.783 336.301 561.126 342.093 L 624.943 400.361 C 627.137 402.365 630.308 402.882 633.027 401.684 C 635.746 400.485 637.5 397.793 637.5 394.822 L 637.5 369.778 C 637.5 369.503 637.724 369.278 638 369.278 L 670 369.278 C 670.276 369.278 670.5 369.503 670.5 369.778 L 670.5 438.647 C 670.5 440.754 671.387 442.764 672.943 444.186 L 714.663 482.278 L 710 482.278 C 705.858 482.278 702.5 485.635 702.5 489.778 L 702.5 674.278 L 605.5 674.278 L 605.5 537.778 C 605.5 529.231 598.547 522.278 590 522.278 L 510 522.278 C 501.453 522.278 494.5 529.231 494.5 537.778 L 494.5 674.278 L 397.5 674.278 L 397.5 489.778 C 397.5 485.636 394.142 482.278 390 482.278 Z M 590.5 762.278 L 509.5 762.278 L 509.5 745.278 L 590.5 745.278 L 590.5 762.278 Z"/>
  <g/>
  <g/>
  <g/>
  <g/>
  <g/>
  <g/>
  <g/>
  <g/>
  <g/>
  <g/>
  <g/>
  <g/>
  <g/>
  <g/>
  <g/>
</svg>