<?xml version="1.0" encoding="utf-8"?>
<svg version="1.0" viewBox="0 0 280 280" preserveAspectRatio="xMidYMid meet" xmlns="http://www.w3.org/2000/svg" xmlns:bx="https://boxy-svg.com">
  <defs>
    <bx:grid x="0" y="0" width="20.251" height="19.663"/>
  </defs>
  <g transform="matrix(0.05448, 0, 0, -0.053705, 99.145004, 180.394836)" fill="#000000" stroke="none">
    <path d="M766 1439 c-31 -33 -89 -102 -129 -152 -273 -345 -429 -598 -431 -699 l-1 -47 -50 -6 c-94 -11 -102 -15 -131 -56 -15 -22 -25 -41 -23 -43 2 -2 119 3 259 10 140 7 268 13 283 13 l29 1 -45 -63 c-57 -80 -107 -169 -107 -190 0 -15 84 -67 109 -67 5 0 35 46 67 103 31 56 75 129 96 163 l38 61 101 7 c56 3 103 5 105 3 2 -1 -20 -36 -47 -77 -62 -93 -136 -239 -145 -286 -8 -41 10 -65 70 -96 53 -27 86 -13 86 35 0 69 71 224 176 383 l34 52 148 7 c81 4 150 9 154 12 10 5 -15 56 -50 102 -24 32 -26 33 -83 29 -33 -2 -59 -1 -59 3 0 9 132 169 197 237 35 37 55 51 66 46 23 -8 21 8 -4 39 -21 28 -86 51 -112 41 -21 -8 -237 -264 -323 -382 -3 -5 -216 -24 -220 -20 -10 11 222 278 242 278 43 0 -20 56 -74 66 -43 8 -46 5 -222 -222 l-110 -140 -146 -13 c-80 -7 -148 -10 -151 -8 -2 3 6 33 17 68 56 168 286 517 466 708 42 45 83 81 91 81 25 0 10 33 -26 57 -56 38 -81 31 -145 -38z" style="stroke-miterlimit: 3; stroke-width: 18.4868px; fill: #1f7f90;"/>
  </g>
</svg>