<?xml version="1.0" encoding="utf-8"?>
<svg viewBox="0 0 760 760" xmlns="http://www.w3.org/2000/svg" xmlns:bx="https://boxy-svg.com">
  <defs>
    <bx:grid x="0" y="0" width="51.373" height="48.858"/>
  </defs>
  <g>
    <path d="M 320.065 327.626 L 439.935 327.626 L 439.935 369.497 L 519.849 369.497 L 559.805 285.755 L 200.195 285.755 L 240.151 369.497 L 320.065 369.497 L 320.065 327.626 Z" style="fill: rgba(216, 216, 216, 0); stroke: rgb(31, 127, 144); stroke-linecap: round; stroke-linejoin: round; stroke-width: 31px;"/>
    <path d="M 360.022 599.861 C 320.065 369.497 320.065 327.626 320.065 327.626 L 341.246 327.626 L 360.022 327.626 L 380.462 327.626 L 399.978 327.626 L 420.783 327.626 L 439.935 327.626 C 414.045 550.951 399.325 599.157 399.978 599.861" style="fill: rgba(216, 216, 216, 0); stroke: rgb(31, 127, 144); stroke-linejoin: round; stroke-linecap: round; stroke-width: 31px;"/>
    <line style="fill: rgb(216, 216, 216); stroke: rgb(31, 127, 144); paint-order: stroke; stroke-linecap: round; stroke-width: 31px;" x1="280.108" y1="599.861" x2="479.892" y2="599.861"/>
    <path style="fill: rgba(216, 216, 216, 0); stroke: rgb(31, 127, 144); stroke-width: 31px;" d="M 304.238 281.985 C 304.238 281.985 296.21151620388633 234.28379015146828 305.515 217.49 C 315.00318426018174 200.3628056203511 361.681 180.788 361.681 180.788" bx:d="M 304.238 281.985 R 305.515 217.49 R 361.681 180.788 1@a9fe38d0"/>
    <ellipse style="fill: rgb(31, 127, 144); stroke: rgba(0, 0, 0, 0); stroke-width: 31px;" cx="373.757" cy="175.895" rx="29.2" ry="29.321"/>
  </g>
</svg>