<?xml version="1.0" encoding="utf-8"?>
<svg viewBox="0 0 950 950" xmlns="http://www.w3.org/2000/svg" xmlns:bx="https://boxy-svg.com">
  <defs>
    <bx:grid x="0" y="0" width="50.419" height="50.875"/>
  </defs>
  <g transform="matrix(1.683331, 0, 0, 1.583534, 28.406382, 181.551331)">
    <path style="fill: rgba(216, 216, 216, 0); stroke-miterlimit: 1; stroke-dashoffset: -50px; stroke-linecap: round; stroke-linejoin: round; stroke: rgb(31, 127, 144); stroke-width: 24.2049px;" d="M 303.204 296.1 L 176.869 296.129 L 101.068 296.15 C 101.068 291.405 101.068 281.915 101.068 271.04 C 101.068 260.165 101.068 247.904 101.068 237.619 C 101.068 227.334 101.068 216.651 102.898 206.126 C 104.728 195.601 108.388 185.234 115.708 175.581 C 123.028 165.928 134.008 156.989 146.843 150.463 C 159.677 143.938 174.367 139.825 189.106 139.825 C 203.845 139.825 218.634 143.938 231.592 150.62 C 244.551 157.303 255.68 166.557 263.099 176.838 C 267.342 182.718 270.372 188.934 272.535 195.294 C 274.698 201.654 275.996 208.158 276.773 214.613 M 276.773 214.613 C 284.745 207.349 294.713 200.977 305.696 196.421 C 316.679 191.865 328.677 189.125 340.708 189.125 C 355.447 189.125 370.236 193.238 383.195 199.92 C 396.153 206.603 407.282 215.857 414.701 226.138 C 422.12 236.419 425.83 247.728 427.684 259.038 C 429.539 270.347 429.539 281.657 429.539 291.938 C 429.539 302.219 429.539 311.472 429.539 319.183 C 429.539 326.894 429.539 333.063 429.539 337.175 L 429.539 341.288 L 429.539 345.4 L 341.105 345.425 L 252.67 345.45"/>
    <path d="M 303.204 296.6 L 176.869 296.629 L 100.568 296.65 C 100.568 291.905 100.568 281.915 100.568 271.04 C 100.568 260.165 100.568 247.904 100.568 237.619 C 100.568 227.334 100.568 216.608 102.405 206.04 C 104.243 195.474 107.944 184.993 115.31 175.279 C 122.665 165.579 133.737 156.572 146.616 150.017 C 159.496 143.474 174.3 139.325 189.106 139.325 C 203.912 139.325 218.816 143.475 231.821 150.176 C 244.825 156.889 256.043 166.218 263.504 176.545 C 267.769 182.462 270.835 188.743 273.008 195.133 C 274.095 198.328 274.968 201.573 275.663 204.813 C 276.01 206.433 276.315 208.062 276.581 209.685 C 276.713 210.496 276.837 211.31 276.952 212.121 C 277.009 212.526 277.064 212.932 277.117 213.337 C 277.127 213.414 277.138 213.504 277.151 213.6 C 285.036 206.576 294.807 200.397 305.504 195.959 C 316.526 191.387 328.621 188.625 340.708 188.625 C 355.514 188.625 370.418 192.775 383.424 199.476 C 396.427 206.189 407.651 215.514 415.106 225.845 C 422.57 236.188 426.314 247.61 428.177 258.957 C 430.036 270.307 430.039 281.657 430.039 291.938 C 430.039 302.219 430.039 311.472 430.039 319.183 C 430.039 326.894 430.039 333.063 430.039 337.175 L 430.039 345.9 L 252.67 345.95 L 252.67 344.95 L 429.039 344.9 C 429.039 340.788 429.039 326.894 429.039 319.183 C 429.039 311.472 429.039 302.219 429.039 291.938 C 429.039 281.657 429.042 270.387 427.191 259.119 C 425.346 247.846 421.67 236.65 414.296 226.431 C 406.913 216.2 395.879 207.017 382.966 200.364 C 370.054 193.701 355.38 189.625 340.708 189.625 C 328.733 189.625 316.832 192.343 305.888 196.883 C 294.945 201.422 285.048 207.744 277.11 214.983 L 276.773 214.613 C 276.525 214.645 276.277 214.677 276.277 214.678 C 276.277 214.678 276.178 213.869 276.125 213.467 C 276.073 213.064 276.018 212.663 275.961 212.26 C 275.848 211.455 275.726 210.652 275.594 209.846 C 275.33 208.235 275.029 206.63 274.685 205.023 C 273.996 201.807 273.138 198.62 272.062 195.455 C 269.909 189.125 266.915 182.974 262.694 177.131 C 255.317 166.896 244.277 157.717 231.363 151.064 C 218.452 144.401 203.778 140.325 189.106 140.325 C 174.434 140.325 159.858 144.402 147.07 150.909 C 134.279 157.406 123.391 166.277 116.106 175.883 C 108.832 185.475 105.213 195.728 103.391 206.212 C 101.568 216.694 101.568 227.334 101.568 237.619 C 101.568 247.904 101.568 260.165 101.568 271.04 C 101.568 281.915 101.568 290.758 101.568 295.65 L 176.869 295.629 L 303.204 295.6 L 303.204 296.6 Z" style="fill: none; stroke-linecap: round; stroke-linejoin: round; stroke: rgb(31, 127, 144); stroke-width: 24.2049px;"/>
    <path d="M 303.204 296.6 L 176.869 296.629 L 100.568 296.65 C 100.568 291.905 100.568 281.915 100.568 271.04 C 100.568 260.165 100.568 247.904 100.568 237.619 C 100.568 227.334 100.568 216.608 102.405 206.04 C 104.243 195.474 107.944 184.993 115.31 175.279 C 122.665 165.579 133.737 156.572 146.616 150.017 C 159.496 143.474 174.3 139.325 189.106 139.325 C 203.912 139.325 218.816 143.475 231.821 150.176 C 244.825 156.889 256.043 166.218 263.504 176.545 C 267.769 182.462 270.835 188.743 273.008 195.133 C 274.095 198.328 274.968 201.573 275.663 204.813 C 276.01 206.433 276.315 208.062 276.581 209.685 C 276.713 210.496 276.837 211.31 276.952 212.121 C 277.009 212.526 277.064 212.932 277.117 213.337 C 277.127 213.414 277.138 213.504 277.151 213.6 C 285.036 206.576 294.807 200.397 305.504 195.959 C 316.526 191.387 328.621 188.625 340.708 188.625 C 355.514 188.625 370.418 192.775 383.424 199.476 C 396.427 206.189 407.651 215.514 415.106 225.845 C 422.57 236.188 426.314 247.61 428.177 258.957 C 430.036 270.307 430.039 281.657 430.039 291.938 C 430.039 302.219 430.039 311.472 430.039 319.183 C 430.039 326.894 430.039 333.063 430.039 337.175 L 430.039 345.9 L 252.67 345.95 L 252.67 344.95 L 429.039 344.9 C 429.039 340.788 429.039 326.894 429.039 319.183 C 429.039 311.472 429.039 302.219 429.039 291.938 C 429.039 281.657 429.042 270.387 427.191 259.119 C 425.346 247.846 421.67 236.65 414.296 226.431 C 406.913 216.2 395.879 207.017 382.966 200.364 C 370.054 193.701 355.38 189.625 340.708 189.625 C 328.733 189.625 316.832 192.343 305.888 196.883 C 294.945 201.422 285.048 207.744 277.11 214.983 L 276.773 214.613 C 276.525 214.645 276.277 214.677 276.277 214.678 C 276.277 214.678 276.178 213.869 276.125 213.467 C 276.073 213.064 276.018 212.663 275.961 212.26 C 275.848 211.455 275.726 210.652 275.594 209.846 C 275.33 208.235 275.029 206.63 274.685 205.023 C 273.996 201.807 273.138 198.62 272.062 195.455 C 269.909 189.125 266.915 182.974 262.694 177.131 C 255.317 166.896 244.277 157.717 231.363 151.064 C 218.452 144.401 203.778 140.325 189.106 140.325 C 174.434 140.325 159.858 144.402 147.07 150.909 C 134.279 157.406 123.391 166.277 116.106 175.883 C 108.832 185.475 105.213 195.728 103.391 206.212 C 101.568 216.694 101.568 227.334 101.568 237.619 C 101.568 247.904 101.568 260.165 101.568 271.04 C 101.568 281.915 101.568 290.758 101.568 295.65 L 176.869 295.629 L 303.204 295.6 L 303.204 296.6 Z" style="stroke-linecap: round; stroke-linejoin: round; stroke: rgb(31, 127, 144); stroke-width: 24.2049px;"/>
    <ellipse style="fill: rgba(216, 216, 216, 0); stroke-linecap: round; stroke-linejoin: round; stroke: rgb(31, 127, 144); stroke-width: 24.2049px;" cx="190.154" cy="74.025" rx="50.534" ry="49.35"/>
    <ellipse style="fill: rgba(216, 216, 216, 0); stroke-linecap: round; stroke-linejoin: round; stroke: rgb(31, 127, 144); stroke-width: 24.2049px;" cx="342.23" cy="123.375" rx="50.534" ry="49.35"/>
  </g>
</svg>